<?xml version="1.0" encoding="utf-8"?>
<!-- Generator: Adobe Illustrator 22.1.0, SVG Export Plug-In . SVG Version: 6.00 Build 0)  -->
<svg version="1.1" id="Layer_1" xmlns="http://www.w3.org/2000/svg" xmlns:xlink="http://www.w3.org/1999/xlink" x="0px" y="0px"
	 viewBox="0 0 18 18" style="enable-background:new 0 0 18 18;" xml:space="preserve">
<style type="text/css">
	.st0{fill:#0076CE;}
</style>
<g id="Art">
	<path class="st0" d="M9,2.3c2.1,0,4.1,1,5.4,2.7h-3.1v1h5.1V1h-1.1v3.3c-2.6-3.4-7.5-4.2-11-1.6C2.3,4.2,1.2,6.5,1.2,9h1.1
		C2.3,5.3,5.3,2.3,9,2.3z"/>
	<path class="st0" d="M15.7,9c0,3.7-3,6.7-6.7,6.7c-2.1,0-4.1-1-5.4-2.7h3.1v-1h-5v5h1.1v-3.3c2.6,3.5,7.5,4.2,10.9,1.6
		c2-1.5,3.1-3.8,3.1-6.3H15.7z"/>
</g>
</svg>
